<mxfile host="65bd71144e" modified="2020-11-18T04:53:47.904Z" agent="5.0 (Windows NT 10.0; Win64; x64) AppleWebKit/537.36 (KHTML, like Gecko) Code/1.51.1 Chrome/83.0.4103.122 Electron/9.3.3 Safari/537.36" etag="EIcWNaFbWokLlifRz_Ei" version="13.6.5">
    <diagram id="H-5pRMC4eVL883-Qc382" name="Page-1">
        <mxGraphModel dx="882" dy="692" grid="1" gridSize="10" guides="1" tooltips="1" connect="1" arrows="1" fold="1" page="1" pageScale="1" pageWidth="827" pageHeight="1169" math="0" shadow="0">
            <root>
                <mxCell id="0"/>
                <mxCell id="1" parent="0"/>
                <mxCell id="68" value="" style="rounded=0;whiteSpace=wrap;html=1;" parent="1" vertex="1">
                    <mxGeometry x="120" y="40" width="600" height="360" as="geometry"/>
                </mxCell>
                <mxCell id="211" value="" style="rounded=0;whiteSpace=wrap;html=1;fontSize=6;" parent="1" vertex="1">
                    <mxGeometry x="120" y="143" width="600" height="123.34" as="geometry"/>
                </mxCell>
                <mxCell id="69" value="" style="rounded=0;whiteSpace=wrap;html=1;" parent="1" vertex="1">
                    <mxGeometry x="120" y="40" width="600" height="40" as="geometry"/>
                </mxCell>
                <mxCell id="71" value="10vh" style="text;html=1;strokeColor=none;fillColor=none;align=center;verticalAlign=middle;whiteSpace=wrap;rounded=0;" parent="1" vertex="1">
                    <mxGeometry x="80" y="50" width="40" height="20" as="geometry"/>
                </mxCell>
                <mxCell id="72" value="90vh" style="text;html=1;strokeColor=none;fillColor=none;align=center;verticalAlign=middle;whiteSpace=wrap;rounded=0;" parent="1" vertex="1">
                    <mxGeometry x="30" y="230" width="40" height="20" as="geometry"/>
                </mxCell>
                <mxCell id="73" value="로고이미지" style="rounded=0;whiteSpace=wrap;html=1;" parent="1" vertex="1">
                    <mxGeometry x="120" y="40" width="80" height="40" as="geometry"/>
                </mxCell>
                <mxCell id="74" value="타이틀" style="rounded=0;whiteSpace=wrap;html=1;" parent="1" vertex="1">
                    <mxGeometry x="340" y="40" width="160" height="40" as="geometry"/>
                </mxCell>
                <mxCell id="75" value="종료&lt;br&gt;버튼" style="rounded=0;whiteSpace=wrap;html=1;" parent="1" vertex="1">
                    <mxGeometry x="680" y="40" width="40" height="40" as="geometry"/>
                </mxCell>
                <mxCell id="76" value="" style="rounded=0;whiteSpace=wrap;html=1;" parent="1" vertex="1">
                    <mxGeometry x="120" y="90" width="600" height="40" as="geometry"/>
                </mxCell>
                <mxCell id="83" value="" style="strokeWidth=2;html=1;shape=mxgraph.flowchart.annotation_2;align=left;labelPosition=right;pointerEvents=1;" parent="1" vertex="1">
                    <mxGeometry x="70" y="80" width="50" height="320" as="geometry"/>
                </mxCell>
                <mxCell id="113" value="3.5vh" style="text;html=1;strokeColor=none;fillColor=none;align=center;verticalAlign=middle;whiteSpace=wrap;rounded=0;" parent="1" vertex="1">
                    <mxGeometry x="723" y="76" width="40" height="20" as="geometry"/>
                </mxCell>
                <mxCell id="114" value="3.5vh" style="text;html=1;strokeColor=none;fillColor=none;align=center;verticalAlign=middle;whiteSpace=wrap;rounded=0;" parent="1" vertex="1">
                    <mxGeometry x="723" y="123" width="40" height="20" as="geometry"/>
                </mxCell>
                <mxCell id="115" value="14vh" style="text;html=1;strokeColor=none;fillColor=none;align=center;verticalAlign=middle;whiteSpace=wrap;rounded=0;" parent="1" vertex="1">
                    <mxGeometry x="723" y="100" width="40" height="20" as="geometry"/>
                </mxCell>
                <mxCell id="145" value="180px" style="rounded=1;whiteSpace=wrap;html=1;" parent="1" vertex="1">
                    <mxGeometry x="145" y="99" width="55" height="24" as="geometry"/>
                </mxCell>
                <mxCell id="147" value="시작일" style="rounded=0;whiteSpace=wrap;html=1;fontSize=6;" parent="1" vertex="1">
                    <mxGeometry x="120" y="90" width="20" height="40" as="geometry"/>
                </mxCell>
                <mxCell id="148" value="시작시간" style="rounded=0;whiteSpace=wrap;html=1;fontSize=6;" parent="1" vertex="1">
                    <mxGeometry x="210" y="90" width="25" height="40" as="geometry"/>
                </mxCell>
                <mxCell id="157" value="저장버튼" style="rounded=0;whiteSpace=wrap;html=1;" parent="1" vertex="1">
                    <mxGeometry x="670" y="90" width="50" height="40" as="geometry"/>
                </mxCell>
                <mxCell id="173" value="&lt;span&gt;180px&lt;/span&gt;" style="rounded=1;whiteSpace=wrap;html=1;" parent="1" vertex="1">
                    <mxGeometry x="242.5" y="99" width="55" height="24" as="geometry"/>
                </mxCell>
                <mxCell id="174" value="&lt;span&gt;180px&lt;/span&gt;" style="rounded=1;whiteSpace=wrap;html=1;" parent="1" vertex="1">
                    <mxGeometry x="356.25" y="99" width="55" height="24" as="geometry"/>
                </mxCell>
                <mxCell id="175" value="종료일" style="rounded=0;whiteSpace=wrap;html=1;fontSize=6;" parent="1" vertex="1">
                    <mxGeometry x="331.25" y="90" width="20" height="40" as="geometry"/>
                </mxCell>
                <mxCell id="176" value="종료시간" style="rounded=0;whiteSpace=wrap;html=1;fontSize=6;" parent="1" vertex="1">
                    <mxGeometry x="421.25" y="90" width="25" height="40" as="geometry"/>
                </mxCell>
                <mxCell id="177" value="&lt;span&gt;180px&lt;/span&gt;" style="rounded=1;whiteSpace=wrap;html=1;" parent="1" vertex="1">
                    <mxGeometry x="453.75" y="99" width="55" height="24" as="geometry"/>
                </mxCell>
                <mxCell id="178" value="장치" style="rounded=0;whiteSpace=wrap;html=1;fontSize=6;" parent="1" vertex="1">
                    <mxGeometry x="530" y="91" width="20" height="40" as="geometry"/>
                </mxCell>
                <mxCell id="179" value="&lt;span&gt;180px&lt;/span&gt;" style="rounded=1;whiteSpace=wrap;html=1;" parent="1" vertex="1">
                    <mxGeometry x="560" y="98" width="55" height="24" as="geometry"/>
                </mxCell>
                <mxCell id="220" value="34vh" style="text;html=1;strokeColor=none;fillColor=none;align=center;verticalAlign=middle;whiteSpace=wrap;rounded=0;" parent="1" vertex="1">
                    <mxGeometry x="770" y="194.50000000000003" width="40" height="20" as="geometry"/>
                </mxCell>
                <mxCell id="221" value="" style="strokeWidth=2;html=1;shape=mxgraph.flowchart.annotation_2;align=left;labelPosition=right;pointerEvents=1;rotation=-180;" parent="1" vertex="1">
                    <mxGeometry x="720" y="143" width="50" height="123" as="geometry"/>
                </mxCell>
                <mxCell id="223" value="" style="rounded=0;whiteSpace=wrap;html=1;fontSize=6;" vertex="1" parent="1">
                    <mxGeometry x="120" y="276.65999999999997" width="600" height="123.34" as="geometry"/>
                </mxCell>
                <mxCell id="224" value="34vh" style="text;html=1;strokeColor=none;fillColor=none;align=center;verticalAlign=middle;whiteSpace=wrap;rounded=0;" vertex="1" parent="1">
                    <mxGeometry x="770" y="328.5" width="40" height="20" as="geometry"/>
                </mxCell>
                <mxCell id="225" value="" style="strokeWidth=2;html=1;shape=mxgraph.flowchart.annotation_2;align=left;labelPosition=right;pointerEvents=1;rotation=-180;" vertex="1" parent="1">
                    <mxGeometry x="720" y="277" width="50" height="123" as="geometry"/>
                </mxCell>
                <mxCell id="226" value="1vh" style="text;html=1;strokeColor=none;fillColor=none;align=center;verticalAlign=middle;whiteSpace=wrap;rounded=0;" vertex="1" parent="1">
                    <mxGeometry x="748" y="261" width="40" height="20" as="geometry"/>
                </mxCell>
                <mxCell id="227" value="" style="endArrow=none;html=1;" edge="1" parent="1">
                    <mxGeometry width="50" height="50" relative="1" as="geometry">
                        <mxPoint x="140" y="160" as="sourcePoint"/>
                        <mxPoint x="140" y="250" as="targetPoint"/>
                    </mxGeometry>
                </mxCell>
                <mxCell id="228" value="" style="endArrow=none;html=1;" edge="1" parent="1">
                    <mxGeometry width="50" height="50" relative="1" as="geometry">
                        <mxPoint x="140" y="250" as="sourcePoint"/>
                        <mxPoint x="700" y="248" as="targetPoint"/>
                    </mxGeometry>
                </mxCell>
                <mxCell id="229" value="" style="edgeStyle=isometricEdgeStyle;endArrow=none;html=1;entryX=0.068;entryY=0.77;entryDx=0;entryDy=0;entryPerimeter=0;exitX=0.917;exitY=0.235;exitDx=0;exitDy=0;exitPerimeter=0;" edge="1" parent="1" source="211" target="211">
                    <mxGeometry width="50" height="100" relative="1" as="geometry">
                        <mxPoint x="390" y="310" as="sourcePoint"/>
                        <mxPoint x="440" y="210" as="targetPoint"/>
                        <Array as="points">
                            <mxPoint x="393" y="178"/>
                        </Array>
                    </mxGeometry>
                </mxCell>
                <mxCell id="230" value="" style="endArrow=none;html=1;" edge="1" parent="1">
                    <mxGeometry width="50" height="50" relative="1" as="geometry">
                        <mxPoint x="139.9999999999999" y="295.7" as="sourcePoint"/>
                        <mxPoint x="139.9999999999999" y="385.6999999999999" as="targetPoint"/>
                    </mxGeometry>
                </mxCell>
                <mxCell id="231" value="" style="endArrow=none;html=1;" edge="1" parent="1">
                    <mxGeometry width="50" height="50" relative="1" as="geometry">
                        <mxPoint x="139.9999999999999" y="385.6999999999999" as="sourcePoint"/>
                        <mxPoint x="700" y="383.7" as="targetPoint"/>
                    </mxGeometry>
                </mxCell>
                <mxCell id="234" value="" style="edgeStyle=isometricEdgeStyle;endArrow=none;html=1;elbow=vertical;entryX=0.895;entryY=0.278;entryDx=0;entryDy=0;entryPerimeter=0;exitX=0.083;exitY=0.765;exitDx=0;exitDy=0;exitPerimeter=0;" edge="1" parent="1" source="223" target="223">
                    <mxGeometry width="50" height="100" relative="1" as="geometry">
                        <mxPoint x="390" y="400" as="sourcePoint"/>
                        <mxPoint x="440" y="300" as="targetPoint"/>
                    </mxGeometry>
                </mxCell>
            </root>
        </mxGraphModel>
    </diagram>
</mxfile>